<svg width="20" height="20" viewBox="0 0 20 20" fill="none" xmlns="http://www.w3.org/2000/svg">
<path d="M10 0C4.48505 0 0 4.48505 0 10C0 15.515 4.48505 20 10 20C15.515 20 20 15.515 20 10C20 4.48505 15.515 0 10 0ZM10 1.33333C14.7944 1.33333 18.6667 5.20564 18.6667 10C18.6667 14.7944 14.7944 18.6667 10 18.6667C5.20563 18.6667 1.33333 14.7944 1.33333 10C1.33333 5.20564 5.20563 1.33333 10 1.33333ZM10 4.44444C8.16695 4.44444 6.66667 5.94473 6.66667 7.77778C6.66542 7.86612 6.68174 7.95383 6.71468 8.03581C6.74762 8.11779 6.79653 8.1924 6.85856 8.25531C6.92059 8.31823 6.9945 8.36818 7.07601 8.40228C7.15751 8.43638 7.24498 8.45394 7.33333 8.45394C7.42168 8.45394 7.50915 8.43638 7.59066 8.40228C7.67216 8.36818 7.74608 8.31823 7.80811 8.25531C7.87014 8.1924 7.91904 8.11779 7.95199 8.03581C7.98493 7.95383 8.00125 7.86612 8 7.77778C8 6.66531 8.88753 5.77778 10 5.77778C11.1125 5.77778 12 6.66531 12 7.77778C12.0079 8.69068 11.5377 9.15784 10.8819 9.77778C10.5541 10.0877 10.19 10.4102 9.88194 10.8333C9.5739 11.2565 9.33333 11.8064 9.33333 12.4444C9.33208 12.5328 9.3484 12.6205 9.38135 12.7025C9.41429 12.7845 9.4632 12.8591 9.52523 12.922C9.58726 12.9849 9.66117 13.0349 9.74268 13.0689C9.82418 13.103 9.91165 13.1206 10 13.1206C10.0884 13.1206 10.1758 13.103 10.2573 13.0689C10.3388 13.0349 10.4127 12.9849 10.4748 12.922C10.5368 12.8591 10.5857 12.7845 10.6187 12.7025C10.6516 12.6205 10.6679 12.5328 10.6667 12.4444C10.6667 12.115 10.7632 11.8861 10.9583 11.6181C11.1535 11.35 11.4573 11.0657 11.7986 10.7431C12.4801 10.0989 13.3426 9.1979 13.3333 7.77778C13.3333 7.77529 13.3334 7.77332 13.3333 7.77083C13.3295 5.94096 11.8307 4.44444 10 4.44444ZM10 13.7778C9.50908 13.7778 9.11111 14.1757 9.11111 14.6667C9.11111 15.1576 9.50908 15.5556 10 15.5556C10.4909 15.5556 10.8889 15.1576 10.8889 14.6667C10.8889 14.1757 10.4909 13.7778 10 13.7778Z" fill="#9EA0A5" fill-opacity="0.4"/>
</svg>
