<svg width="55" height="55" viewBox="0 0 55 55" fill="none" xmlns="http://www.w3.org/2000/svg">
<circle opacity="0.1" cx="27.5" cy="27.5" r="27.5" fill="#34AA44"/>
<path d="M18.5902 22.3535L27.1824 26.5023C27.4058 26.609 27.7054 26.6648 28 26.6648C28.2945 26.6648 28.5941 26.609 28.8176 26.5023L37.4097 22.3535C37.8617 22.1352 37.8617 21.7797 37.4097 21.5613L28.8176 17.4125C28.5941 17.3059 28.2945 17.25 28 17.25C27.7054 17.25 27.4058 17.3059 27.1824 17.4125L18.5902 21.5613C18.1383 21.7797 18.1383 22.1352 18.5902 22.3535Z" fill="#34AA44"/>
<path d="M37.4098 26.6039C37.4098 26.6039 35.8407 25.8473 35.6325 25.7457C35.4243 25.6441 35.3684 25.6492 35.15 25.7508C34.9317 25.8523 28.8125 28.8078 28.8125 28.8078C28.584 28.9145 28.2895 28.9703 27.995 28.9703C27.7004 28.9703 27.4008 28.9145 27.1774 28.8078C27.1774 28.8078 21.2207 25.9336 20.9415 25.7965C20.6368 25.6492 20.5504 25.6492 20.2762 25.7813L18.5801 26.5988C18.1282 26.8172 18.1282 27.1727 18.5801 27.391L27.1723 31.5398C27.3957 31.6465 27.6954 31.7023 27.9899 31.7023C28.2844 31.7023 28.584 31.6465 28.8075 31.5398L37.3997 27.391C37.8618 27.1777 37.8618 26.8223 37.4098 26.6039Z" fill="#34AA44"/>
<path d="M37.4097 31.6465C37.4097 31.6465 35.8406 30.8898 35.6324 30.7883C35.4242 30.6867 35.3683 30.6918 35.15 30.7934C34.9316 30.8949 28.8175 33.8555 28.8175 33.8555C28.589 33.9621 28.2945 34.018 28 34.018C27.7054 34.018 27.4058 33.9621 27.1824 33.8555C27.1824 33.8555 21.2257 30.9812 20.9464 30.8441C20.6418 30.6969 20.5554 30.6969 20.2812 30.8289L18.5851 31.6465C18.1332 31.8648 18.1332 32.2203 18.5851 32.4387L27.1773 36.5875C27.4007 36.6992 27.7003 36.75 27.9949 36.75C28.2894 36.75 28.589 36.6941 28.8125 36.5875L37.4046 32.4387C37.8617 32.2203 37.8617 31.8648 37.4097 31.6465Z" fill="#34AA44"/>
</svg>
