<svg width="55" height="55" viewBox="0 0 55 55" fill="none" xmlns="http://www.w3.org/2000/svg">
<circle opacity="0.1" cx="27.5" cy="27.5" r="27.5" fill="#F6AB2F"/>
<path d="M33.0914 31.3039C32.4789 31.0851 31.4781 31.0742 31.0352 30.9047C30.7289 30.7844 30.2422 30.6531 30.0836 30.4617C29.925 30.2703 29.925 28.9031 29.925 28.9031C29.925 28.9031 30.3078 28.5422 30.4664 28.1375C30.625 27.7383 30.7289 26.6336 30.7289 26.6336C30.7289 26.6336 31.0898 26.7867 31.232 26.0648C31.3523 25.4414 31.582 25.1133 31.5219 24.6539C31.4563 24.1945 31.2047 24.3039 31.2047 24.3039C31.2047 24.3039 31.5219 23.8391 31.5219 22.2586C31.5219 20.6289 30.2914 19.0266 27.9891 19.0266C25.6922 19.0266 24.4508 20.6344 24.4508 22.2586C24.4508 23.8391 24.7625 24.3039 24.7625 24.3039C24.7625 24.3039 24.5055 24.1945 24.4453 24.6539C24.3797 25.1133 24.6094 25.4414 24.7352 26.0648C24.8773 26.7922 25.2383 26.6336 25.2383 26.6336C25.2383 26.6336 25.3422 27.7328 25.5008 28.1375C25.6594 28.5422 26.0422 28.9031 26.0422 28.9031C26.0422 28.9031 26.0422 30.2703 25.8836 30.4617C25.725 30.6531 25.2383 30.7844 24.932 30.8992C24.4945 31.0687 23.4938 31.0906 22.8758 31.3094C22.2633 31.5281 20.3711 32.5234 20.3711 34.9844H35.5906C35.5961 32.518 33.7039 31.5226 33.0914 31.3039Z" fill="#F6AB2F"/>
<path d="M21.6562 28.6406C21.6562 28.6406 22.9633 28.5969 23.4828 28.132C22.6352 26.8469 23.0945 25.3484 22.9195 23.9484C22.7445 22.5539 21.9516 21.7172 20.3656 21.7172H20.3438C18.8125 21.7172 17.9867 22.5484 17.8117 23.9484C17.6367 25.343 18.1234 27.0109 17.2539 28.132C17.7734 28.6024 19.0859 28.5859 19.0859 28.5859C19.0859 28.5859 19.1406 29.3734 19.0312 29.5047C18.9219 29.6359 18.5992 29.7617 18.375 29.8055C17.8937 29.9094 17.3852 30.0516 16.9586 30.1992C16.532 30.3469 15.7227 31.1399 15.7227 32.2336H20.1141C20.2344 31.7961 21.0602 31.0141 21.8641 30.6039C22.3563 30.3524 22.843 30.3688 23.2148 30.3195C23.2148 30.3195 23.4227 29.9914 22.7391 29.8656C22.7391 29.8656 21.7984 29.6305 21.6891 29.4992C21.5852 29.3789 21.6562 28.6406 21.6562 28.6406ZM34.3438 28.6406C34.3438 28.6406 33.0367 28.5969 32.5172 28.132C33.3648 26.8469 32.9055 25.3484 33.0805 23.9484C33.2555 22.5539 34.0484 21.7172 35.6344 21.7172H35.6562C37.1875 21.7172 38.0133 22.5484 38.1883 23.9484C38.3633 25.343 37.8766 27.0109 38.7461 28.132C38.2266 28.6024 36.9141 28.5859 36.9141 28.5859C36.9141 28.5859 36.8594 29.3734 36.9688 29.5047C37.0781 29.6359 37.4008 29.7617 37.625 29.8055C38.1063 29.9094 38.6148 30.0516 39.0414 30.1992C39.468 30.3469 40.2773 31.1399 40.2773 32.2336H35.8859C35.7656 31.7961 34.9398 31.0141 34.1359 30.6039C33.6438 30.3524 33.157 30.3688 32.7852 30.3195C32.7852 30.3195 32.5773 29.9914 33.2609 29.8656C33.2609 29.8656 34.2016 29.6305 34.3109 29.4992C34.4148 29.3789 34.3438 28.6406 34.3438 28.6406Z" fill="#F6AB2F"/>
</svg>
