<svg width="55" height="55" viewBox="0 0 55 55" fill="none" xmlns="http://www.w3.org/2000/svg">
<circle opacity="0.1" cx="27.5" cy="27.5" r="27.5" fill="#1665D8"/>
<path d="M37.0695 27.8176C35.932 27.7566 34.957 28.4879 34.6219 29.4883H32.6465L31.2043 25.1516C31.0926 24.8164 30.7828 24.593 30.4324 24.593H30.4172C30.0617 24.598 29.752 24.8367 29.6555 25.182L27.3957 33.0684L24.7398 17.118C24.6789 16.7371 24.3539 16.4527 23.968 16.4375C23.582 16.4223 23.2418 16.6812 23.1453 17.052L20.4539 29.4883H17.4375C16.9906 29.4883 16.625 29.8539 16.625 30.3008C16.625 30.7477 16.9906 31.1133 17.4375 31.1133H21.0938C21.4645 31.1133 21.7945 30.8594 21.8809 30.4988L23.7801 21.2465L26.3852 36.882C26.4461 37.2578 26.7609 37.5371 27.1418 37.5574H27.1875C27.548 37.5574 27.868 37.3187 27.9695 36.9684L30.4934 28.1527L31.2906 30.5547C31.4023 30.8848 31.7121 31.1133 32.0625 31.1133H34.6574C35.0078 32.0273 35.8965 32.6875 36.9375 32.6875C38.3086 32.6875 39.4156 31.5551 39.375 30.1738C39.3344 28.9145 38.3238 27.8836 37.0695 27.8176Z" fill="#1665D8"/>
</svg>
